<svg xmlns="http://www.w3.org/2000/svg" width="18" height="18" viewBox="0 0 18 18" fill="none">
  <path d="M 2 18 C 1.45 18 0.979 17.804 0.587 17.413 C 0.196 17.021 0 16.55 0 16 L 0 2 C 0 1.45 0.196 0.979 0.587 0.587 C 0.979 0.196 1.45 0 2 0 L 16 0 C 16.55 0 17.021 0.196 17.413 0.587 C 17.804 0.979 18 1.45 18 2 L 18 16 C 18 16.55 17.804 17.021 17.413 17.413 C 17.021 17.804 16.55 18 16 18 L 2 18 L 2 18 M 2 16 L 16 16 L 16 16 L 16 16 L 16 2 L 16 2 L 16 2 L 2 2 L 2 2 L 2 2 L 2 16 L 2 16 L 2 16 L 2 16 M 3 14 L 15 14 L 11.25 9 L 8.25 13 L 6 10 L 3 14 L 3 14 M 2 16 L 2 16 L 2 16 L 2 2 L 2 2 L 2 2 L 2 2 L 2 2 L 2 2 L 2 16 L 2 16 L 2 16 L 2 16 L 2 16" fill="currentColor" fill-rule="nonzero"></path>
</svg>