<svg xmlns="http://www.w3.org/2000/svg" width="14.667" height="10.667" viewBox="0 0 14.667 10.667" fill="none">
  <path d="M 6.233 8.667 L 10 4.9 L 9.033 3.933 L 6.217 6.75 L 4.817 5.35 L 3.867 6.3 L 6.233 8.667 L 6.233 8.667 M 3.667 10.667 C 2.656 10.667 1.792 10.317 1.075 9.617 C 0.358 8.917 0 8.061 0 7.05 C 0 6.183 0.261 5.411 0.783 4.733 C 1.306 4.056 1.989 3.622 2.833 3.433 C 3.111 2.411 3.667 1.583 4.5 0.95 C 5.333 0.317 6.278 0 7.333 0 C 8.633 0 9.736 0.453 10.642 1.358 C 11.547 2.264 12 3.367 12 4.667 L 12 4.667 L 12 4.667 C 12.767 4.756 13.403 5.086 13.908 5.658 C 14.414 6.231 14.667 6.9 14.667 7.667 C 14.667 8.5 14.375 9.208 13.792 9.792 C 13.208 10.375 12.5 10.667 11.667 10.667 L 3.667 10.667 L 3.667 10.667 M 3.667 9.333 L 11.667 9.333 C 12.133 9.333 12.528 9.172 12.85 8.85 C 13.172 8.528 13.333 8.133 13.333 7.667 C 13.333 7.2 13.172 6.806 12.85 6.483 C 12.528 6.161 12.133 6 11.667 6 L 10.667 6 L 10.667 4.667 C 10.667 3.744 10.342 2.958 9.692 2.308 C 9.042 1.658 8.256 1.333 7.333 1.333 C 6.411 1.333 5.625 1.658 4.975 2.308 C 4.325 2.958 4 3.744 4 4.667 L 4 4.667 L 3.667 4.667 C 3.022 4.667 2.472 4.894 2.017 5.35 C 1.561 5.806 1.333 6.356 1.333 7 C 1.333 7.644 1.561 8.194 2.017 8.65 C 2.472 9.106 3.022 9.333 3.667 9.333 L 3.667 9.333 M 7.333 5.333 L 7.333 5.333 L 7.333 5.333 L 7.333 5.333 L 7.333 5.333 L 7.333 5.333 L 7.333 5.333 L 7.333 5.333 L 7.333 5.333 L 7.333 5.333 L 7.333 5.333 L 7.333 5.333 L 7.333 5.333 L 7.333 5.333 L 7.333 5.333 L 7.333 5.333 L 7.333 5.333 L 7.333 5.333 L 7.333 5.333" fill="currentColor" fill-rule="nonzero"></path>
</svg>