<svg xmlns="http://www.w3.org/2000/svg" width="16" height="18" viewBox="0 0 16 18" fill="none">
  <path d="M 3 18 C 2.45 18 1.979 17.804 1.587 17.413 C 1.196 17.021 1 16.55 1 16 L 1 3 L 0 3 L 0 1 L 5 1 L 5 0 L 11 0 L 11 1 L 16 1 L 16 3 L 15 3 L 15 16 C 15 16.55 14.804 17.021 14.413 17.413 C 14.021 17.804 13.55 18 13 18 L 3 18 L 3 18 M 13 3 L 3 3 L 3 16 L 3 16 L 3 16 L 13 16 L 13 16 L 13 16 L 13 3 L 13 3 M 5 14 L 7 14 L 7 5 L 5 5 L 5 14 L 5 14 M 9 14 L 11 14 L 11 5 L 9 5 L 9 14 L 9 14 M 3 3 L 3 3 L 3 16 L 3 16 L 3 16 L 3 16 L 3 16 L 3 16 L 3 3 L 3 3" fill="currentColor" fill-rule="nonzero"></path>
</svg>