<svg xmlns="http://www.w3.org/2000/svg" width="53.011" height="17.739" viewBox="0 0 53.011 17.739" fill="none">
  <path d="M 26.505 2.642 C 27.799 2.553 29.141 2.331 30.593 1.809 C 33.611 0.93 36.656 0.242 39.805 0.058 C 41.58 -0.047 43.893 -0.026 45.973 0.258 C 48.33 0.581 50.379 1.188 50.866 1.335 C 51.408 1.5 52.132 1.746 52.58 1.968 C 52.835 2.095 52.973 2.304 52.992 2.605 C 53.032 3.452 53.009 4.46 52.912 5.354 C 52.901 5.457 52.881 5.585 52.827 5.693 C 52.196 6.932 51.785 7.763 51.326 9.205 C 51.28 9.349 50.352 12.677 50.352 12.677 C 50.082 13.745 49.464 14.688 48.525 15.529 C 48.525 15.529 47.588 16.28 46.222 16.797 C 44.891 17.301 43.118 17.569 42.182 17.65 C 40.005 17.84 37.742 17.69 36.615 17.526 C 34.839 17.268 33.324 16.712 31.958 15.391 C 31.465 14.916 30.807 14.118 30.208 13.052 C 29.389 11.593 28.64 9.79 28.191 9.086 C 27.583 8.131 26.906 7.889 26.509 7.884 L 26.502 7.875 L 26.502 7.884 C 26.105 7.889 25.428 8.131 24.82 9.086 C 24.371 9.79 23.622 11.593 22.803 13.052 C 22.204 14.118 21.545 14.916 21.053 15.391 C 19.686 16.712 18.172 17.268 16.396 17.526 C 15.269 17.69 13.005 17.84 10.828 17.65 C 9.893 17.569 8.12 17.301 6.789 16.797 C 5.423 16.28 4.486 15.529 4.486 15.529 C 3.547 14.688 2.929 13.745 2.659 12.677 C 2.659 12.677 1.731 9.349 1.685 9.205 C 1.226 7.763 0.815 6.932 0.184 5.693 C 0.129 5.585 0.11 5.457 0.099 5.354 C 0.002 4.46 -0.022 3.452 0.019 2.605 C 0.038 2.304 0.175 2.095 0.431 1.968 C 0.879 1.746 1.602 1.5 2.145 1.335 C 2.632 1.188 4.681 0.581 7.038 0.258 C 9.117 -0.026 11.431 -0.047 13.206 0.058 C 16.355 0.242 19.4 0.93 22.418 1.809 C 23.87 2.331 25.212 2.553 26.505 2.642 Z M 51.755 4.123 C 51.426 4.123 51.158 4.391 51.158 4.72 C 51.158 5.05 51.426 5.318 51.755 5.318 C 52.085 5.318 52.352 5.05 52.352 4.72 C 52.352 4.391 52.085 4.123 51.755 4.123 Z M 1.255 4.123 C 0.926 4.123 0.658 4.391 0.658 4.72 C 0.658 5.05 0.926 5.318 1.255 5.318 C 1.585 5.318 1.853 5.05 1.853 4.72 C 1.853 4.391 1.585 4.123 1.255 4.123 Z M 22.705 7.44 C 22.813 6.347 22.643 5.374 22.155 4.682 C 21.598 3.892 20.574 3.431 20.574 3.431 C 20.459 3.381 19.213 2.706 17.21 2.177 C 15.554 1.74 13.962 1.573 12.9 1.51 C 11.648 1.436 10.575 1.444 9.484 1.529 C 7.842 1.658 6.647 1.998 6.385 2.077 C 5.493 2.348 4.615 2.687 4.131 3.132 C 3.74 3.49 3.581 3.856 3.478 4.744 C 3.337 5.952 3.588 7.545 3.766 8.833 C 4.074 11.055 4.416 12.004 4.869 12.982 C 5.2 13.696 5.787 14.269 6.487 14.701 C 7.248 15.172 8.151 15.699 10.667 16.019 C 12.551 16.258 15.07 16.098 16.745 15.685 C 17.867 15.461 18.938 15.007 19.785 14.206 C 21.018 13.042 22.348 11.049 22.705 7.44 Z M 1.255 2.674 C 0.926 2.674 0.658 2.941 0.658 3.271 C 0.658 3.6 0.926 3.868 1.255 3.868 C 1.585 3.868 1.853 3.6 1.853 3.271 C 1.853 2.941 1.585 2.674 1.255 2.674 Z M 51.755 2.674 C 51.426 2.674 51.158 2.941 51.158 3.271 C 51.158 3.6 51.426 3.868 51.755 3.868 C 52.085 3.868 52.352 3.6 52.352 3.271 C 52.352 2.941 52.085 2.674 51.755 2.674 Z M 30.306 7.44 C 30.663 11.049 31.993 13.042 33.225 14.206 C 34.073 15.007 35.144 15.461 36.266 15.685 C 37.941 16.098 40.46 16.258 42.344 16.019 C 44.86 15.699 45.763 15.172 46.524 14.701 C 47.224 14.269 47.81 13.696 48.141 12.982 C 48.595 12.004 48.937 11.055 49.245 8.833 C 49.423 7.545 49.674 5.952 49.533 4.744 C 49.429 3.856 49.271 3.49 48.88 3.132 C 48.396 2.687 47.518 2.348 46.626 2.077 C 46.364 1.998 45.169 1.658 43.527 1.529 C 42.435 1.444 41.363 1.436 40.11 1.51 C 39.049 1.573 37.457 1.74 35.801 2.177 C 33.798 2.706 32.552 3.381 32.437 3.431 C 32.437 3.431 31.412 3.892 30.856 4.682 C 30.368 5.374 30.197 6.347 30.306 7.44 Z" fill="currentColor" fill-rule="evenodd"></path>
</svg>